<?xml version="1.0" standalone="no"?>
<!DOCTYPE svg PUBLIC "-//W3C//DTD SVG 20010904//EN"
 "http://www.w3.org/TR/2001/REC-SVG-20010904/DTD/svg10.dtd">
<svg version="1.0" xmlns="http://www.w3.org/2000/svg"
 width="290.000000pt" height="290.000000pt" viewBox="0 0 290.000000 290.000000"
 preserveAspectRatio="xMidYMid meet">
<metadata>
Created by potrace 1.11, written by Peter Selinger 2001-2013
</metadata>
<g transform="translate(0.000000,290.000000) scale(0.100000,-0.100000)"
fill="#000000" stroke="none">
<path d="M11 2890 c-4 -3 -7 -653 -6 -1445 l0 -1440 1143 0 c628 0 1142 2
1142 5 0 3 -511 5 -1135 5 -748 0 -1136 3 -1138 10 -1 6 -2 651 -2 1435 l1
1424 1428 1 c1260 0 1429 -2 1435 -15 4 -8 7 -86 6 -172 0 -86 2 -155 5 -153
4 3 6 305 1 340 -1 10 -2866 15 -2880 5z"/>
<path d="M1275 2839 c-600 -77 -1092 -543 -1201 -1137 -9 -48 -17 -148 -19
-222 -17 -651 420 -1224 1055 -1385 147 -38 341 -51 490 -35 595 65 1086 506
1215 1090 22 100 30 184 30 310 -1 139 -9 210 -40 331 -62 246 -178 450 -360
636 -182 185 -373 299 -615 368 -180 51 -375 67 -555 44z m383 -135 c267 -45
486 -159 683 -354 188 -186 300 -391 356 -650 28 -131 25 -403 -6 -530 -95
-386 -348 -702 -695 -866 -199 -93 -339 -123 -566 -119 -228 4 -374 39 -561
137 -549 285 -813 913 -633 1505 32 108 122 285 189 374 203 271 497 452 814
504 116 18 307 18 419 -1z"/>
<path d="M960 2200 c-155 -28 -255 -176 -227 -334 25 -143 137 -236 282 -235
39 0 87 6 108 13 42 15 106 61 114 82 4 11 -60 84 -74 84 -2 0 -20 -11 -41
-25 -69 -45 -157 -42 -208 9 -47 47 -59 138 -28 201 42 87 140 111 227 55 l46
-29 41 46 c22 25 40 49 40 52 -1 12 -75 58 -114 71 -46 15 -117 19 -166 10z"/>
<path d="M1699 2187 c0 -7 -1 -132 -2 -280 l-2 -267 68 0 67 0 0 219 0 220 58
-3 c31 -2 67 -4 80 -5 30 -1 62 -36 62 -66 0 -46 -37 -71 -110 -74 -36 -1 -66
-3 -67 -4 -1 -2 173 -275 182 -285 6 -6 145 -7 145 -1 0 3 -29 48 -64 100 -56
82 -62 95 -48 103 58 30 91 85 94 153 3 88 -37 155 -111 185 -38 16 -351 20
-352 5z"/>
<path d="M1838 1297 c-98 -28 -174 -103 -203 -200 -19 -63 -19 -97 -1 -165 45
-168 235 -257 408 -192 236 88 251 425 24 539 -57 28 -162 36 -228 18z m173
-140 c40 -26 79 -98 79 -144 0 -107 -101 -190 -199 -163 -107 28 -158 149
-106 249 39 77 154 106 226 58z"/>
<path d="M797 1023 c0 -148 2 -273 2 -279 1 -15 421 -15 422 0 1 17 1 79 0 94
-1 9 -37 12 -147 12 l-145 0 3 52 3 53 135 0 135 0 0 58 c1 45 -2 57 -15 58
-8 1 -70 1 -137 1 l-123 0 0 49 0 49 145 0 145 0 0 60 0 60 -212 0 -213 0 2
-267z"/>
<path d="M2884 2476 c0 -30 3 -52 6 -50 7 8 7 104 0 104 -4 0 -6 -24 -6 -54z"/>
<path d="M2885 2156 c0 -140 2 -253 5 -250 7 7 7 504 0 504 -3 0 -5 -114 -5
-254z"/>
<path d="M2884 1836 c0 -30 3 -52 6 -50 7 8 7 104 0 104 -4 0 -6 -24 -6 -54z"/>
<path d="M2885 1516 c0 -140 2 -253 5 -250 7 7 7 504 0 504 -3 0 -5 -114 -5
-254z"/>
<path d="M2884 1196 c0 -30 3 -52 6 -50 7 8 7 104 0 104 -4 0 -6 -24 -6 -54z"/>
<path d="M2885 579 c0 -480 -2 -552 -15 -558 -8 -4 -113 -7 -232 -6 -119 0
-215 -2 -213 -5 3 -4 425 -6 460 -1 10 1 15 1121 5 1121 -3 0 -5 -248 -5 -551z"/>
<path d="M2307 10 c7 -7 103 -7 103 0 0 4 -24 6 -54 6 -30 -1 -52 -3 -49 -6z"/>
</g>
</svg>
