<?xml version="1.0"?>
<svg xmlns="http://www.w3.org/2000/svg" height="512px" viewBox="0 0 512 512" width="512px"><path d="m490.503906 124.070312 21.210938-21.210937-30.210938-30.210937 30.210938-30.226563-42.4375-42.421875-30.203125 30.21875-30.207031-30.21875-21.210938 21.210938 30.207031 30.21875-21.210937 21.210937-30.222656-30.203125-21.210938 21.210938 30.164062 30.148437-74.621093 71.90625c11.890625 11.003906 31.226562 30.640625 42.738281 42.15625 77.910156-75.910156 74.359375-71.570313 74.359375-71.570313l30.222656 30.203126 21.210938-21.210938-30.222657-30.203125 21.21875-21.21875zm0 0" fill="#00b395"/><path d="m88.230469 397.429688-48.523438 27.21875c6.679688 8.621093 13.898438 17.128906 22.273438 25.3125 8.195312 8.390624 16.6875 15.773437 25.308593 22.464843l27.292969-48.644531zm0 0" fill="#00b395"/><path d="m215.582031 275.949219c-4 0-7.761719 1.570312-10.605469 4.398437-5.84375 5.84375-5.84375 15.363282 0 21.210938 5.683594 5.667968 15.558594 5.667968 21.195313 0h.015625c5.847656-5.847656 5.847656-15.367188 0-21.210938-2.839844-2.84375-6.589844-4.398437-10.605469-4.398437zm0 0" fill="#00b395"/><path d="m337.925781 248.542969c-3.867187-6.414063-8.539062-12.378907-13.886719-17.722657l-40.179687-40.183593c-26.851563-26.851563-72.171875-44.742188-107.550781-28.753907-19.261719 8.746094-33.734375 26.585938-38.746094 47.753907-7.519531 22.796875-22.679688 13.519531-43.269531 15.25-40.386719 3.515625-73.277344 27.832031-86.578125 65.007812-14.167969 39.628907-8.6875 67.128907 15.324218 109.703125l70.34375-39.460937 58.492188 58.488281-39.574219 70.53125c24.046875 13.621094 48.734375 22.84375 72.433594 22.84375 12.902344 0 25.53125-4.03125 37.570313-8.324219 37.191406-13.300781 61.511718-45.351562 65.023437-85.75.511719-5.796875-.125-12.628906-1.125-18.753906-1.828125-11.195313 5.308594-21.910156 16.375-24.519531 21.886719-5.1875 40.003906-20.289063 48.488281-40.429688 7.207032-17.140625 10.78125-45.910156-13.140625-85.664062zm-172.589843 135.089843-42.421876-42.4375 21.210938-21.210937 42.421875 42.4375zm82.078124-60.863281c-8.496093 8.496094-19.804687 13.183594-31.832031 13.183594-12.011719 0-23.320312-4.6875-31.816406-13.183594-17.546875-17.550781-17.546875-46.085937 0-63.632812l.570313-.574219.121093.121094c17.101563-16.410156 46.179688-16.328125 62.957031.453125 17.535157 17.53125 17.535157 46.082031 0 63.632812zm0 0" fill="#00b395"/></svg>
