<?xml version="1.0" encoding="iso-8859-1"?>
<!-- Generator: Adobe Illustrator 19.0.0, SVG Export Plug-In . SVG Version: 6.00 Build 0)  -->
<svg xmlns="http://www.w3.org/2000/svg" xmlns:xlink="http://www.w3.org/1999/xlink" version="1.1" id="Capa_1" x="0px" y="0px" viewBox="0 0 512 512" style="enable-background:new 0 0 512 512;" xml:space="preserve" width="512px" height="512px">
<g>
	<g>
		<path d="M475.767,13.742h-54.882l-78.683,78.683l21.225,21.224L223.12,253.957c-4.965-13.12-6.625-27.447-4.607-41.915    l2.19-15.704l-15.801-1.326c-21.449-1.801-40.718,4.681-54.28,18.242c-7.81,7.811-13.249,17.404-16.168,28.512    c-3.72,14.158-11.129,27.085-21.427,37.382c-15.179,15.179-34.953,23.729-55.677,24.074c-16.63,0.277-30.861,5.863-41.15,16.155    c-15.213,15.213-19.917,38.294-13.242,64.99c5.994,23.981,20.747,48.639,41.541,69.433c28.879,28.88,63.134,44.458,91.937,44.458    c16.699,0,31.567-5.239,42.487-16.159c10.291-10.291,15.877-24.519,16.155-41.149c0.346-20.725,8.896-40.5,24.074-55.678    c10.299-10.298,23.225-17.707,37.382-21.427c11.11-2.919,20.702-8.359,28.512-16.169c5.584-5.584,10.007-12.184,13.146-19.616    l7.258-17.186l-18.342-3.408c-16.91-3.143-32.302-11.256-44.51-23.465c-1.186-1.186-2.331-2.399-3.437-3.639l145.489-145.491    l21.224,21.225L512,49.975L475.767,13.742z M111.319,408.207l-21.224-21.224l42.449-42.449l21.224,21.224L111.319,408.207z     M185.999,354.752l-42.45-42.45l21.224-21.224l42.45,42.45L185.999,354.752z" fill="#00b395"/>
	</g>
</g>
<g>
</g>
<g>
</g>
<g>
</g>
<g>
</g>
<g>
</g>
<g>
</g>
<g>
</g>
<g>
</g>
<g>
</g>
<g>
</g>
<g>
</g>
<g>
</g>
<g>
</g>
<g>
</g>
<g>
</g>
</svg>
