<?xml version="1.0"?>
<svg xmlns="http://www.w3.org/2000/svg" height="512px" viewBox="0 -16 512 512" width="512px"><path d="m211 345c0 24.8125 20.1875 45 45 45s45-20.1875 45-45-20.1875-45-45-45-45 20.1875-45 45zm0 0" fill="#00b395"/><path d="m512 60v-30h-61v-30h-30v30h-60v30h60v30h-120v30h-90v-30h-120v-30h60v-30h-60v-30h-30v30h-61v30h61v30h-30v60h210v61.515625c-67.316406 7.574219-120 64.175781-120 133.484375 0 25.28125 7.417969 48.6875 19.558594 68.9375l-27.058594 36.0625h-22.5v-180h18.214844c20.6875-40.320312 57.425781-70.996094 101.785156-83.605469v-6.394531h-180v90h30v180h-30v30h97.5l30.828125-41.105469c24.546875 25.265625 58.742187 41.105469 96.671875 41.105469s72.125-15.839844 96.671875-41.105469l30.828125 41.105469h97.5v-30h-30v-180h30v-90h-180v6.394531c44.359375 12.609375 81.097656 43.285157 101.785156 83.605469h18.214844v180h-22.5l-27.058594-36.0625c12.140625-20.25 19.558594-43.65625 19.558594-68.9375 0-69.308594-52.683594-125.910156-120-133.484375v-61.515625h210v-60h-30v-30zm-181 285c0 41.351562-33.648438 75-75 75s-75-33.648438-75-75 33.648438-75 75-75 75 33.648438 75 75zm0 0" fill="#00b395"/></svg>
