<?xml version="1.0"?>
<svg xmlns="http://www.w3.org/2000/svg" height="512px" viewBox="0 0 512.00097 512" width="512px"><path d="m37.769531 424.488281c6.859375 9.558594 14.425781 18.808594 22.957031 27.386719l.058594.058594c8.375 8.332031 17.382813 15.664062 26.664063 22.421875l22.695312-45.378907-27.117187-27.117187zm0 0" fill="#00b395"/><path d="m284.101562 251.808594c0-34.730469-1.757812-49.0625-5.800781-55.828125-11.582031-27.65625-39.003906-46.046875-69.164062-46.046875-39.929688 0-72.726563 31.15625-74.398438 68.667968-2.984375 14.457032-14.0625 14.308594-27.070312 13.457032-55.683594-3.414063-103.921875 33.058594-107.433594 83.558594-1.828125 26.453124 7.265625 55.613281 21.707031 83.253906l67-33.5 57.6875 57.6875-33.621094 67.242187c49.007813 25.960938 88.960938 32.503907 132.015626-3.695312 60.515624-50.929688 13.566406-107.90625 57.820312-109.753907 50.601562-2.09375 70.734375-36.34375 83.75-69.578124l8.757812-22.34375-68.816406 5.535156c-22.824218 1.90625-42.433594-15.753906-42.433594-38.65625zm-126.59375 144.792968-42.402343-42.402343 21.203125-21.203125 42.402344 42.40625zm42.417969-42.402343-42.417969-42.402344 21.199219-21.203125 42.417969 42.402344zm0 0" fill="#00b395"/><path d="m290.0625 158.039062c24.773438 30.058594 24.023438 55.058594 24.023438 93.769532 0 2.375.878906 4.496094 2.550781 6.136718.140625.140626.382812.082032.53125.214844l95.757812-95.761718-63.609375-63.609376zm0 0" fill="#00b395"/><path d="m410.226562 0-4.394531 4.394531c-1.421875 1.421875-1.613281 1.679688-38.855469 69.652344l69.664063 69.664063 75.359375-48.800782v-94.910156zm0 0" fill="#00b395"/></svg>
