<?xml version="1.0"?>
<svg xmlns="http://www.w3.org/2000/svg" height="512px" viewBox="0 0 512 512" width="512px"><path d="m121 211h30v180h-30zm0 0" fill="#00b395"/><path d="m211 211h-30v210h-30v91h90v-91h-30zm0 0" fill="#00b395"/><path d="m331 211h-30v210h-30v91h90v-91h-30zm0 0" fill="#00b395"/><path d="m0 0v181h512v-181zm91 151h-30v-30h30zm0-60h-30v-30h30zm60 60h-30v-30h30zm0-60h-30v-30h30zm150 60h-90v-30h90zm0-60h-90v-30h90zm90 60h-30v-30h30zm0-60h-30v-30h30zm60 60h-30v-30h30zm0-60h-30v-30h30zm0 0" fill="#00b395"/><path d="m421 421h-30v91h121v-301h-91zm0 0" fill="#00b395"/><path d="m91 211h-91v301h121v-91h-30zm0 0" fill="#00b395"/><path d="m361 211h30v180h-30zm0 0" fill="#00b395"/><path d="m241 211h30v180h-30zm0 0" fill="#00b395"/></svg>
