<?xml version="1.0"?>
<svg xmlns="http://www.w3.org/2000/svg" height="512px" viewBox="0 0 512.001 512" width="512px"><path d="m16.355469 432.023438 21.210937 21.210937-37.566406 37.5625 21.203125 21.203125 37.5625-37.5625 21.210937 21.207031 21.203126-21.210937-63.613282-63.613282zm0 0" fill="#00b395"/><path d="m362.0625 0c-28.199219 0-54.304688 8.292969-76.863281 21.886719l204.914062 204.914062c13.59375-22.554687 21.886719-48.664062 21.886719-76.859375 0-82.671875-67.265625-149.941406-149.9375-149.941406zm0 0" fill="#00b395"/><path d="m193.554688 212.425781-47.617188 47.621094 106.015625 106.015625 47.621094-47.617188c-48.957031-18.214843-87.804688-57.0625-106.019531-106.019531zm0 0" fill="#00b395"/><path d="m209.546875 408.46875-106.011719-106.011719 21.203125-21.203125 106.011719 106.015625zm0 0" fill="#00b395"/><path d="m143.582031 474.433594-106.011719-106.011719 44.761719-44.761719 106.011719 106.011719zm0 0" fill="#00b395"/><path d="m212.125 149.9375c0 82.671875 67.265625 149.9375 149.9375 149.9375 21.667969 0 42.152344-4.832031 60.769531-13.140625l-197.566406-197.566406c-8.308594 18.617187-13.140625 39.101562-13.140625 60.769531zm0 0" fill="#00b395"/><path d="m465.203125 286.699219-239.898437-239.898438 21.203124-21.199219 239.898438 239.898438zm0 0" fill="#00b395"/></svg>
