<?xml version="1.0"?>
<svg xmlns="http://www.w3.org/2000/svg" height="512px" viewBox="-21 -21 682 682.66709" width="512px"><g><path d="m255.9375 384.390625c10.167969 10.164063 26.703125 10.164063 36.871094 0 10.160156-10.160156 10.160156-26.699219 0-36.867187-10.167969-10.160157-26.703125-10.160157-36.871094 0-10.160156 10.167968-10.160156 26.707031 0 36.867187zm0 0" data-original="#000000" class="active-path" data-old_color="#000000" fill="#00B395"/><path d="m339.21875 472.679688c15.609375-5.59375 29.699219-14.457032 41.382812-26.140626 46.980469-46.984374 43.304688-127.109374-8.199218-178.609374-51.5-51.503907-131.625-55.179688-178.609375-8.191407-11.683594 11.683594-20.546875 25.765625-26.140625 41.375-47.007813-3.949219-91.203125 11.480469-123.289063 43.574219-62.941406 62.933594-57.78125 170.503906 11.503907 239.785156 69.273437 69.277344 176.84375 74.4375 239.78125 11.5 32.089843-32.089844 47.519531-76.285156 43.570312-123.292968zm-19.398438-152.167969c25.058594 25.058593 25.058594 65.835937 0 90.894531-25.058593 25.054688-65.835937 25.058594-90.894531 0-25.058593-25.0625-25.058593-65.835938 0-90.894531 25.058594-25.054688 65.835938-25.054688 90.894531 0zm-118.515624 206.730469-88.214844-88.214844c-7.453125-7.460938-7.453125-19.554688 0-27.011719 7.460937-7.460937 19.558594-7.460937 27.011718 0l88.214844 88.214844c7.460938 7.457031 7.460938 19.550781 0 27.011719-7.457031 7.457031-19.550781 7.457031-27.011718 0zm0 0" data-original="#000000" class="active-path" data-old_color="#000000" fill="#00B395"/><path d="m639.417969 78.429688-77.511719-77.515626c-1.300781-1.296874-3.429688-1.199218-4.601562.210938l-76.8125 92.328125 66.386718 66.386719 92.328125-76.8125c1.40625-1.171875 1.503907-3.300782.210938-4.597656zm0 0" data-original="#000000" class="active-path" data-old_color="#000000" fill="#00B395"/><path d="m363.59375 212.886719c12.65625 7.554687 24.777344 16.984375 35.820312 28.03125 11.050782 11.046875 20.472657 23.164062 28.03125 35.820312l91.152344-91.15625-63.851562-63.851562zm0 0" data-original="#000000" class="active-path" data-old_color="#000000" fill="#00B395"/></g> </svg>
