<?xml version="1.0"?>
<svg xmlns="http://www.w3.org/2000/svg" xmlns:xlink="http://www.w3.org/1999/xlink" version="1.1" id="Layer_1" x="0px" y="0px" viewBox="0 0 469.335 469.335" style="enable-background:new 0 0 469.335 469.335;" xml:space="preserve" width="512px" height="512px"><g><g>
	<g>
		<g>
			<path d="M243.084,388.085c-1.26-2.875-3.729-5.031-6.74-5.917c-13.76-4.052-23.01-16.292-23.01-30.448     c0-17.615,14.354-31.938,32-31.938c9.688,0,18.792,4.469,24.979,12.26c1.844,2.333,4.573,3.781,7.542,4.01     c2.885,0.115,5.875-0.802,8.063-2.813c21.979-20.375,34.083-47.865,34.083-77.385c0-14.688-3.401-29.107-9.729-43.026     L428.759,81.176l1.034,1.034c2.083,2.083,4.813,3.125,7.542,3.125s5.458-1.042,7.542-3.125c4.167-4.167,4.167-10.917,0-15.083     l-1.827-1.827l23.546-26.163c3.792-4.219,3.625-10.667-0.385-14.677L444.876,3.126c-3.99-4-10.469-4.198-14.677-0.385     l-26.163,23.546l-1.827-1.827c-4.167-4.167-10.917-4.167-15.083,0c-4.167,4.167-4.167,10.917,0,15.083l1.034,1.034     L256.326,159.225c-42.152-18.849-89.94-8.719-120.461,24.141c-2.031,2.177-3.052,5.104-2.823,8.073s1.688,5.708,4.021,7.552     c7.802,6.177,12.271,15.25,12.271,24.917c0,17.615-14.354,31.938-32,31.938c-13.979,0-26.188-9.063-30.375-22.552     c-0.917-2.969-3.094-5.385-5.948-6.625c-2.875-1.24-6.094-1.177-8.906,0.198c-29.167,14.177-51.688,38.76-63.417,69.219     c-5.76,14.969-8.688,30.25-8.688,45.427c0,15.625,2.917,31.083,8.656,45.958c19.229,49.729,66.073,81.865,119.344,81.865     c49.302,0,93.344-27.698,114.938-72.292C244.303,394.231,244.355,390.949,243.084,388.085z M25.275,369.871     c-2.604-9.299-3.941-18.797-3.941-28.359c0-9.24,1.348-18.557,3.97-27.831c10.35,5.385,17.363,15.958,17.363,28.102     C42.667,353.921,35.645,364.49,25.275,369.871z M96.001,341.335c-5.896,0-10.667-4.771-10.667-10.667     c0-5.896,4.771-10.667,10.667-10.667c5.885,0,10.667-4.781,10.667-10.667c0-5.896,4.771-10.667,10.667-10.667     c5.896,0,10.667,4.771,10.667,10.667C128.001,326.981,113.647,341.335,96.001,341.335z M160.001,362.668     c-5.885,0-10.667,4.781-10.667,10.667c0,5.896-4.771,10.667-10.667,10.667s-10.667-4.771-10.667-10.667c0-17.646,14.354-32,32-32     c5.896,0,10.667,4.771,10.667,10.667C170.667,357.897,165.897,362.668,160.001,362.668z" data-original="#000000" class="active-path" data-old_color="#000000" fill="#00B395"/>
			<path d="M462.751,235.481c-3.99-1.656-8.573-0.74-11.625,2.313L237.792,451.127c-4.167,4.167-4.167,10.917,0,15.083     s10.917,4.167,15.083,0l13.792-13.792l13.792,13.792c2.083,2.083,4.813,3.125,7.542,3.125c2.729,0,5.458-1.042,7.542-3.125     l170.667-170.667c2-2,3.125-4.708,3.125-7.542v-42.667C469.334,241.022,466.74,237.126,462.751,235.481z M448.001,283.585     l-160,160l-6.25-6.25l166.25-166.25V283.585z" data-original="#000000" class="active-path" data-old_color="#000000" fill="#00B395"/>
		</g>
	</g>
</g></g> </svg>
